<svg xmlns="http://www.w3.org/2000/svg" xmlns:xlink="http://www.w3.org/1999/xlink" width="126" height="98" viewBox="0 0 126 98">
    <defs>
        <path id="prefix__a" d="M0 0H448V98H0z"/>
        <path id="prefix__b" d="M120.707 95.004l.07.035v.31h-1.033l-.039-.063c-.028-.058-.052-.121-.067-.206-.013-.076-.02-.22-.032-.42l-.046-.85c-.008-.303-.114-.485-.296-.58-.116-.049-.322-.088-.58-.088h-1.457v2.207h-.929v-5.374h2.485c.406 0 .743.05 1.015.182.523.235.789.676.789 1.319 0 .33-.067.602-.212.817-.102.158-.238.282-.4.397.123.063.233.165.318.265.12.157.175.38.188.715l.03.687c.009.19.028.325.034.412.042.129.1.211.162.235zm-1.389-4.104c-.13-.067-.302-.097-.516-.097h-1.575v1.525h1.484c.298 0 .536-.06.702-.168.16-.115.236-.319.236-.617 0-.326-.11-.53-.33-.643zm-.972 6.69c-1.29 0-2.49-.503-3.398-1.417-.903-.91-1.405-2.125-1.405-3.42 0-2.656 2.146-4.835 4.803-4.835 1.28 0 2.495.504 3.398 1.429.901.921 1.398 2.129 1.398 3.406 0 1.295-.497 2.51-1.398 3.42-.903.914-2.119 1.416-3.398 1.416zm-2.828-1.995c.748.765 1.754 1.177 2.828 1.177 2.193 0 3.986-1.792 3.986-4.019 0-1.068-.406-2.079-1.167-2.835-.751-.77-1.752-1.181-2.819-1.181-1.074 0-2.08.41-2.828 1.181-.756.756-1.166 1.767-1.166 2.835 0 1.076.41 2.088 1.166 2.842zM9.46 83.17c10.662 3.534 21.488 4.23 31.653 2.559.659-.106 1.37-.224 2.02-.332v-10.73L32.977 78.37c-3.749 1.353-9.251 1.64-12.297.634-3.032-.995-2.466-2.907 1.279-4.258l21.174-7.625v-11.98L13.708 65.652S6.589 67.997 2.39 71.12c-4.528 3.38-2.869 9.235 7.07 12.05zm62.07 13.202l44.86-16.202s6.024-2.23 8.491-5.355c2.455-3.118 1.368-7.647-8.317-10.725-8.592-3.285-19.537-4.39-28.477-3.415-8.931.999-15.291 3.262-15.291 3.262l-1.266.43v12.399l22.004-7.793c3.741-1.351 9.248-1.634 12.29-.639 3.042 1.002 2.465 2.911-1.279 4.26L71.53 84.432v11.942zm3.862-88.594c17.379 6.011 23.27 13.474 23.27 30.297 0 16.395-10.067 22.615-22.866 16.402V23.925c0-3.578-.652-6.876-4.003-7.81-2.564-.84-4.152 1.564-4.152 5.138v76.506l-20.526-6.555V0c8.734 1.62 21.44 5.474 28.277 7.78z"/>
    </defs>
    <g fill="none" fill-rule="evenodd">
        <use fill="#111212" xlink:href="#prefix__b"/>
    </g>
</svg>
